<svg xmlns="http://www.w3.org/2000/svg" width="64" height="64" viewBox="0 0 1200 1274" version="1.1"><path d="M 208 70 L 208 111 241.500 111 L 275 111 275 238.500 C 275 308.625, 275.231 366, 275.513 366 C 275.795 366, 282.882 363.948, 291.263 361.440 C 309.917 355.857, 336.862 349.128, 355.250 345.459 L 369 342.715 369 226.858 L 369 111 403 111 L 437 111 437 70 L 437 29 322.500 29 L 208 29 208 70 M 771 70 L 771 111 805 111 L 839 111 839 222.792 L 839 334.584 856.250 336.884 C 873.620 339.199, 905.187 344.355, 923.250 347.826 L 933 349.700 933 230.350 L 933 111 966.500 111 L 1000 111 1000 70 L 1000 29 885.500 29 L 771 29 771 70 M 490 229.500 L 490 270 523.500 270 L 557 270 557 628.500 L 557 987 523.500 987 L 490 987 490 1028.004 L 490 1069.008 604.250 1068.754 L 718.500 1068.500 718.761 1027.750 L 719.022 987 685.011 987 L 651 987 651 628.500 L 651 270 685 270 L 719 270 719 229.500 L 719 189 604.500 189 L 490 189 490 229.500 M 677 395.860 L 677 442.841 683.250 443.391 C 686.688 443.694, 696.250 444.203, 704.500 444.523 C 712.750 444.842, 731.875 445.992, 747 447.078 C 884.907 456.979, 998.791 482.607, 1086.386 523.451 C 1091.824 525.987, 1096.371 527.935, 1096.492 527.780 C 1105.043 516.843, 1153.163 451.839, 1152.892 451.589 C 1152.677 451.390, 1146.200 448.083, 1138.500 444.241 C 1046.928 398.548, 930.484 369.332, 787 356.048 C 761.481 353.686, 726.345 351.302, 705.500 350.520 C 697.250 350.210, 687.462 349.714, 683.750 349.418 L 677 348.879 677 395.860 M 508.500 351.111 C 384.014 360.496, 282.826 384.670, 202.864 424.126 C 177.973 436.408, 170.470 440.688, 149.500 454.569 C 103.373 485.103, 71.948 518.596, 52.929 557.500 C 41.513 580.849, 37.132 598.257, 36.317 623.500 C 35.850 637.961, 36.084 642.346, 37.881 652.860 C 42.897 682.192, 56.968 712.363, 77.824 738.500 C 85.832 748.536, 105.914 768.897, 117 778.221 C 201.798 849.539, 341.191 894.218, 515.449 905.934 C 523.121 906.450, 529.759 906.649, 530.199 906.377 C 530.640 906.105, 531 885.016, 531 859.513 L 531 813.144 525.750 812.600 C 522.862 812.301, 516.450 811.785, 511.500 811.453 C 398.110 803.855, 293.243 777.131, 223.538 738.069 C 158.095 701.395, 123.557 655.952, 131.455 616.912 C 135.164 598.577, 144.670 582.495, 162.921 563.681 C 215.098 509.890, 316.843 469.634, 445 452.072 C 468.823 448.808, 498.369 445.809, 520.250 444.436 L 531 443.761 531 396.881 L 531 350 525.250 350.141 C 522.087 350.218, 514.550 350.655, 508.500 351.111 M 839 627.906 C 839 768.281, 839.060 773, 840.845 773 C 846.614 773, 916.256 760.324, 929.250 756.909 L 933 755.923 933 628 L 933 500.077 929.250 499.088 C 918.119 496.150, 861.998 485.865, 844.250 483.509 L 839 482.812 839 627.906 M 364 494.130 C 362.075 494.652, 353.907 496.857, 345.848 499.030 C 328.480 503.713, 305.420 511.315, 287.750 518.185 L 275 523.141 275 628.421 L 275 733.700 281.250 736.321 C 300.078 744.218, 322.936 751.859, 349.395 759.102 C 359.237 761.796, 367.675 764, 368.145 764 C 368.615 764, 369 703.025, 369 628.500 C 369 553.975, 368.663 493.041, 368.250 493.090 C 367.837 493.140, 365.925 493.608, 364 494.130 M 1081 735.683 C 992.726 777.102, 861.405 804.581, 716.500 811.955 C 704.950 812.543, 691.337 813.285, 686.250 813.605 L 677 814.187 677 861.187 L 677 908.187 686.250 907.611 C 691.337 907.294, 701.350 906.779, 708.500 906.467 C 853.048 900.157, 987.955 874.984, 1085.962 836.036 C 1107.206 827.593, 1144.239 810.820, 1146.838 808.464 C 1147.486 807.876, 1090.566 732.001, 1089.537 732.082 C 1088.967 732.127, 1085.125 733.748, 1081 735.683 M 276 941.777 C 276 969.833, 276.463 997.448, 277.030 1003.144 C 283.134 1064.536, 307.126 1116.192, 348.967 1158.033 C 393.912 1202.978, 453.980 1230.651, 528 1240.511 C 548.318 1243.218, 600.903 1244.512, 636.751 1243.187 C 684.316 1241.430, 711.700 1237.199, 745.016 1226.462 C 848.996 1192.951, 915.676 1116.599, 930.579 1013.985 C 932.873 998.188, 933.962 906.712, 931.847 907.472 C 928.267 908.758, 844.106 922, 839.512 922 C 839.231 922, 839 936.127, 839 953.394 C 839 994.158, 837.574 1008.239, 831.344 1028.977 C 813.055 1089.855, 757.621 1132.133, 679.342 1144.904 C 657.164 1148.522, 640.842 1149.246, 593.375 1148.718 C 539.672 1148.119, 525.147 1146.523, 495.441 1137.954 C 426.626 1118.104, 381.102 1067.334, 371.490 999.721 C 370.430 992.265, 370.032 979.351, 370.018 951.983 L 370 914.467 358.750 912.164 C 336.849 907.680, 311.042 901.026, 277.750 891.279 C 276.100 890.796, 276 893.667, 276 941.777" stroke="none" fill="#051c3b" fill-rule="evenodd"/><path d="M 181 70 L 181 135 215.004 135 L 249.008 135 248.754 255.044 L 248.500 375.088 228.500 383.080 C 123.114 425.194, 50.117 488.389, 21.594 562.205 C 12.558 585.588, 9.502 602.714, 9.583 629.500 C 9.636 647.265, 9.947 650.953, 12.362 662.500 C 19.260 695.485, 34.439 727.102, 57.009 755.500 C 65.144 765.735, 85.899 786.980, 97.500 796.945 C 134.390 828.637, 182.341 856.302, 234.727 876.118 L 248.954 881.500 248.978 939.500 C 249.004 1001.879, 249.578 1011.930, 254.514 1036.548 C 278.762 1157.474, 375.537 1243.701, 510.254 1264.413 C 536.243 1268.409, 546.096 1269.063, 589.500 1269.672 C 666.202 1270.749, 707.197 1266.160, 753.500 1251.313 C 858.444 1217.662, 931.274 1140.342, 952.436 1040.114 C 957.849 1014.473, 958.247 1009.017, 958.723 953.816 L 959.169 902.132 972.835 898.932 C 1023.153 887.147, 1083.608 867.120, 1124.810 848.589 C 1151.003 836.808, 1183.359 819.578, 1182.746 817.737 C 1182.556 817.168, 1162.855 790.301, 1138.965 758.033 L 1095.530 699.365 1077.515 708.071 C 1048.254 722.210, 1015.842 734.297, 979.810 744.505 C 970.840 747.046, 962.712 749.352, 961.750 749.630 C 960.090 750.109, 960 743.868, 960 628.500 C 960 513.123, 960.090 506.892, 961.750 507.394 C 962.712 507.684, 972.050 510.384, 982.500 513.393 C 1020.233 524.257, 1050.420 535.723, 1081 550.806 C 1091.725 556.095, 1100.800 560.441, 1101.167 560.462 C 1101.700 560.492, 1186.795 447.376, 1189.354 443.237 C 1190.307 441.695, 1177.182 433.992, 1151.500 421.022 C 1101.681 395.861, 1043.701 375.169, 980.373 359.949 C 971.093 357.719, 962.712 355.663, 961.750 355.380 C 960.097 354.894, 960 348.768, 960 244.933 L 960 135 993.500 135 L 1027 135 1027 69.997 L 1027 4.993 885.750 5.247 L 744.500 5.500 744.500 70 L 744.500 134.500 778.250 134.763 L 812 135.027 812 233.311 L 812 331.595 804.250 330.833 C 770.612 327.526, 726.849 324.493, 696.750 323.383 L 678 322.691 678 308.346 L 678 294 711.500 294 L 745 294 745 229.500 L 745 165 604 165 L 463 165 463 229.500 L 463 294 497 294 L 531 294 531 308.354 L 531 322.708 518.250 323.391 C 500.879 324.323, 474.156 326.614, 452.500 329.029 C 433.617 331.136, 400.741 335.680, 397.750 336.598 C 396.091 337.107, 396 331.860, 396 236.067 L 396 135 430 135 L 464 135 464 70 L 464 5 322.500 5 L 181 5 181 70 M 208 70 L 208 111 241.500 111 L 275 111 275 238.500 C 275 308.625, 275.231 366, 275.513 366 C 275.795 366, 282.882 363.948, 291.263 361.440 C 309.917 355.857, 336.862 349.128, 355.250 345.459 L 369 342.715 369 226.858 L 369 111 403 111 L 437 111 437 70 L 437 29 322.500 29 L 208 29 208 70 M 771 70 L 771 111 805 111 L 839 111 839 222.792 L 839 334.584 856.250 336.884 C 873.620 339.199, 905.187 344.355, 923.250 347.826 L 933 349.700 933 230.350 L 933 111 966.500 111 L 1000 111 1000 70 L 1000 29 885.500 29 L 771 29 771 70 M 490 229.500 L 490 270 523.500 270 L 557 270 557 628.500 L 557 987 523.500 987 L 490 987 490 1028.004 L 490 1069.008 604.250 1068.754 L 718.500 1068.500 718.761 1027.750 L 719.022 987 685.011 987 L 651 987 651 628.500 L 651 270 685 270 L 719 270 719 229.500 L 719 189 604.500 189 L 490 189 490 229.500 M 677 395.860 L 677 442.841 683.250 443.391 C 686.688 443.694, 696.250 444.203, 704.500 444.523 C 712.750 444.842, 731.875 445.992, 747 447.078 C 884.907 456.979, 998.791 482.607, 1086.386 523.451 C 1091.824 525.987, 1096.371 527.935, 1096.492 527.780 C 1105.043 516.843, 1153.163 451.839, 1152.892 451.589 C 1152.677 451.390, 1146.200 448.083, 1138.500 444.241 C 1046.928 398.548, 930.484 369.332, 787 356.048 C 761.481 353.686, 726.345 351.302, 705.500 350.520 C 697.250 350.210, 687.462 349.714, 683.750 349.418 L 677 348.879 677 395.860 M 508.500 351.111 C 384.014 360.496, 282.826 384.670, 202.864 424.126 C 177.973 436.408, 170.470 440.688, 149.500 454.569 C 103.373 485.103, 71.948 518.596, 52.929 557.500 C 41.513 580.849, 37.132 598.257, 36.317 623.500 C 35.850 637.961, 36.084 642.346, 37.881 652.860 C 42.897 682.192, 56.968 712.363, 77.824 738.500 C 85.832 748.536, 105.914 768.897, 117 778.221 C 201.798 849.539, 341.191 894.218, 515.449 905.934 C 523.121 906.450, 529.759 906.649, 530.199 906.377 C 530.640 906.105, 531 885.016, 531 859.513 L 531 813.144 525.750 812.600 C 522.862 812.301, 516.450 811.785, 511.500 811.453 C 398.110 803.855, 293.243 777.131, 223.538 738.069 C 158.095 701.395, 123.557 655.952, 131.455 616.912 C 135.164 598.577, 144.670 582.495, 162.921 563.681 C 215.098 509.890, 316.843 469.634, 445 452.072 C 468.823 448.808, 498.369 445.809, 520.250 444.436 L 531 443.761 531 396.881 L 531 350 525.250 350.141 C 522.087 350.218, 514.550 350.655, 508.500 351.111 M 678 628.366 L 678 786.733 684.750 786.376 C 688.462 786.179, 701.175 785.544, 713 784.964 C 739.444 783.667, 764.042 781.754, 791.250 778.879 L 812 776.687 812 628.343 C 812 546.754, 811.663 479.999, 811.250 479.998 C 810.837 479.996, 802.175 479.120, 792 478.049 C 764.357 475.142, 693.939 470.076, 680.250 470.011 L 678 470 678 628.366 M 505.304 472.548 C 473.046 474.971, 436.237 479.688, 407.247 485.112 L 395.993 487.218 396.247 628.314 L 396.500 769.411 400.446 770.230 C 428.658 776.092, 477.293 782.222, 522.250 785.582 L 531 786.237 531 628.618 L 531 471 526.750 471.128 C 524.413 471.198, 514.762 471.837, 505.304 472.548 M 839 627.906 C 839 768.281, 839.060 773, 840.845 773 C 846.614 773, 916.256 760.324, 929.250 756.909 L 933 755.923 933 628 L 933 500.077 929.250 499.088 C 918.119 496.150, 861.998 485.865, 844.250 483.509 L 839 482.812 839 627.906 M 364 494.130 C 362.075 494.652, 353.907 496.857, 345.848 499.030 C 328.480 503.713, 305.420 511.315, 287.750 518.185 L 275 523.141 275 628.421 L 275 733.700 281.250 736.321 C 300.078 744.218, 322.936 751.859, 349.395 759.102 C 359.237 761.796, 367.675 764, 368.145 764 C 368.615 764, 369 703.025, 369 628.500 C 369 553.975, 368.663 493.041, 368.250 493.090 C 367.837 493.140, 365.925 493.608, 364 494.130 M 241 540.241 C 220.564 551.455, 199.261 566.318, 186.233 578.451 C 171.079 592.564, 159.275 610.522, 156.981 622.954 C 152.663 646.350, 179.614 679.851, 225.540 708.178 C 234.055 713.430, 243.317 718.561, 247.250 720.204 C 248.909 720.898, 249 716.168, 249 628.968 C 249 556.001, 248.742 537.023, 247.750 537.111 C 247.063 537.172, 244.025 538.581, 241 540.241 M 1081 735.683 C 992.726 777.102, 861.405 804.581, 716.500 811.955 C 704.950 812.543, 691.337 813.285, 686.250 813.605 L 677 814.187 677 861.187 L 677 908.187 686.250 907.611 C 691.337 907.294, 701.350 906.779, 708.500 906.467 C 853.048 900.157, 987.955 874.984, 1085.962 836.036 C 1107.206 827.593, 1144.239 810.820, 1146.838 808.464 C 1147.486 807.876, 1090.566 732.001, 1089.537 732.082 C 1088.967 732.127, 1085.125 733.748, 1081 735.683 M 276 941.777 C 276 969.833, 276.463 997.448, 277.030 1003.144 C 283.134 1064.536, 307.126 1116.192, 348.967 1158.033 C 393.912 1202.978, 453.980 1230.651, 528 1240.511 C 548.318 1243.218, 600.903 1244.512, 636.751 1243.187 C 684.316 1241.430, 711.700 1237.199, 745.016 1226.462 C 848.996 1192.951, 915.676 1116.599, 930.579 1013.985 C 932.873 998.188, 933.962 906.712, 931.847 907.472 C 928.267 908.758, 844.106 922, 839.512 922 C 839.231 922, 839 936.127, 839 953.394 C 839 994.158, 837.574 1008.239, 831.344 1028.977 C 813.055 1089.855, 757.621 1132.133, 679.342 1144.904 C 657.164 1148.522, 640.842 1149.246, 593.375 1148.718 C 539.672 1148.119, 525.147 1146.523, 495.441 1137.954 C 426.626 1118.104, 381.102 1067.334, 371.490 999.721 C 370.430 992.265, 370.032 979.351, 370.018 951.983 L 370 914.467 358.750 912.164 C 336.849 907.680, 311.042 901.026, 277.750 891.279 C 276.100 890.796, 276 893.667, 276 941.777 M 396.270 957.937 C 396.668 992.237, 396.946 997.526, 398.786 1005.777 C 405.732 1036.924, 419.978 1061.290, 442.754 1080.980 C 466.540 1101.543, 499.344 1114.695, 540.500 1120.170 C 554.619 1122.048, 653.371 1122.049, 667.500 1120.171 C 747.779 1109.501, 796.661 1068.685, 809.624 1001.500 C 810.740 995.719, 811.315 984.140, 811.699 959.750 L 812.230 926 809.717 926 C 808.335 926, 797.371 926.885, 785.352 927.966 C 755.929 930.614, 721.707 932.832, 697.750 933.645 L 678 934.314 678 948.657 L 678 963 711.500 963 L 745 963 745 1027.500 L 745 1092 604 1092 L 463 1092 463 1027.500 L 463 963 496.500 963 L 530 963 530 948.154 L 530 933.308 514.881 932.625 C 487.143 931.374, 443.913 926.827, 410.477 921.645 L 395.823 919.374 396.270 957.937" stroke="none" fill="#facb2c" fill-rule="evenodd"/></svg>