<?xml version="1.0" standalone="no"?>
<!DOCTYPE svg PUBLIC "-//W3C//DTD SVG 20010904//EN"
 "http://www.w3.org/TR/2001/REC-SVG-20010904/DTD/svg10.dtd">
<svg version="1.0" xmlns="http://www.w3.org/2000/svg"
 width="64" height="64" viewBox="0 0 512.000000 512.000000"
 preserveAspectRatio="xMidYMid meet">

<g transform="translate(0.000000,512.000000) scale(0.100000,-0.100000)"
fill="#106cb7" stroke="none">
<path d="M2425 5100 c-889 -78 -1682 -607 -2077 -1385 -193 -379 -278 -734
-278 -1160 0 -427 88 -788 284 -1170 404 -787 1197 -1311 2076 -1373 141 -10
451 2 580 22 530 83 1039 331 1423 696 88 83 107 107 107 131 0 46 -28 53
-108 30 -410 -121 -871 -78 -1258 117 -235 118 -500 350 -637 557 -156 237
-255 506 -285 774 -9 84 -17 89 -124 71 -346 -58 -583 62 -682 346 -114 326 2
791 247 997 95 79 158 109 275 127 168 27 388 -57 581 -223 30 -26 61 -47 69
-47 7 0 66 51 130 113 244 234 412 334 713 427 173 53 298 70 515 70 180 0
330 -16 451 -46 72 -18 100 -12 109 21 8 32 -13 60 -127 170 -398 384 -935
646 -1484 725 -102 14 -384 20 -500 10z"/>
<path d="M4420 3207 c-71 -47 -96 -145 -65 -253 21 -74 90 -148 148 -159 113
-22 207 68 207 197 0 83 -64 190 -137 227 -38 19 -116 13 -153 -12z"/>
<path d="M3194 2882 c-71 -45 -102 -128 -84 -223 30 -155 164 -242 274 -177
119 69 115 283 -7 381 -49 40 -135 49 -183 19z"/>
<path d="M4002 2560 c-140 -37 -261 -125 -277 -201 -21 -94 68 -169 201 -169
61 0 77 -12 106 -79 30 -71 59 -197 56 -242 -6 -81 -92 -105 -268 -74 -52 9
-110 19 -127 22 -29 5 -33 3 -33 -16 0 -34 76 -108 144 -140 82 -39 153 -52
260 -50 244 5 471 131 561 311 35 71 46 140 24 154 -12 7 -19 2 -126 -90 -73
-62 -172 -116 -214 -116 -48 0 -82 56 -112 185 -37 156 -33 174 38 220 71 45
107 94 113 153 3 41 0 53 -22 79 -55 66 -194 89 -324 53z"/>
</g>
</svg>
