<?xml version="1.0" standalone="no"?>
<!DOCTYPE svg PUBLIC "-//W3C//DTD SVG 20010904//EN"
 "http://www.w3.org/TR/2001/REC-SVG-20010904/DTD/svg10.dtd">
<svg version="1.0" xmlns="http://www.w3.org/2000/svg"
 width="64" height="64" viewBox="0 0 720.000000 720.000000"
 preserveAspectRatio="xMidYMid meet">

<g transform="translate(0.000000,720.000000) scale(0.100000,-0.100000)"
fill="#000000" stroke="none">
<path d="M3013 6782 c-55 -10 -83 -19 -83 -28 0 -7 29 -181 65 -386 127 -723
228 -1300 246 -1411 17 -102 17 -102 70 -89 24 6 70 14 102 17 31 4 57 11 57
16 0 5 -29 174 -65 376 -128 731 -265 1513 -265 1518 0 8 -38 4 -127 -13z"/>
<path d="M4007 6522 c-152 -871 -276 -1580 -279 -1602 -3 -23 1 -25 87 -42
113 -21 105 -21 105 0 0 17 289 1679 315 1807 7 39 10 73 6 78 -7 7 -148 37
-174 37 -8 0 -30 -101 -60 -278z"/>
<path d="M1995 6404 c-49 -29 -96 -58 -103 -62 -10 -6 65 -145 294 -543 168
-294 380 -664 471 -824 91 -159 171 -295 177 -302 8 -9 21 -5 56 18 25 17 72
44 105 61 33 17 62 32 64 34 4 4 -25 56 -254 454 -109 190 -233 406 -275 480
-274 482 -425 740 -434 739 -6 0 -51 -25 -101 -55z"/>
<path d="M5106 6418 c-7 -13 -65 -113 -128 -223 -64 -110 -176 -306 -250 -435
-75 -129 -224 -390 -333 -580 -108 -190 -206 -359 -216 -377 l-20 -32 78 -45
c43 -25 81 -42 85 -38 4 4 40 66 81 137 40 72 251 438 467 814 216 377 395
692 397 701 3 12 -15 29 -65 58 -39 23 -73 42 -76 42 -3 0 -12 -10 -20 -22z"/>
<path d="M1178 5728 c-30 -35 -71 -85 -93 -111 -38 -47 -38 -48 -19 -67 37
-36 1439 -1220 1445 -1220 4 0 25 24 47 54 23 29 66 80 96 113 l55 60 -372
314 c-204 173 -504 426 -667 563 -162 138 -323 274 -358 303 -34 29 -66 53
-71 53 -5 0 -33 -28 -63 -62z"/>
<path d="M5845 5594 c-88 -75 -209 -177 -269 -227 -60 -51 -213 -180 -340
-287 -219 -186 -687 -580 -695 -586 -2 -2 18 -29 45 -61 27 -32 49 -60 51 -62
1 -2 87 68 190 156 602 509 784 664 844 713 213 177 429 362 429 368 0 6 -65
90 -88 114 -4 4 -79 -54 -167 -128z"/>
<path d="M629 4832 c-17 -40 -99 -269 -99 -277 0 -3 124 -49 1051 -389 382
-140 707 -258 721 -261 24 -6 26 -3 52 80 15 47 42 119 61 160 l33 73 -71 27
c-40 15 -211 78 -382 140 -170 62 -395 145 -500 183 -104 38 -325 120 -490
180 -165 61 -313 115 -328 121 -27 10 -29 9 -48 -37z"/>
<path d="M4824 4013 c53 -177 71 -321 62 -483 -10 -187 -52 -343 -133 -505
-172 -341 -477 -589 -837 -680 -212 -54 -421 -54 -641 -1 -382 93 -720 380
-874 743 -35 82 -81 235 -81 269 0 13 -2 24 -5 24 -7 0 -672 -243 -1355 -495
-129 -48 -281 -103 -337 -123 -71 -26 -103 -42 -103 -53 0 -45 130 -389 147
-389 11 0 89 28 683 245 146 53 355 130 465 170 110 40 292 107 404 149 113
42 206 74 208 72 3 -2 -22 -26 -55 -53 -32 -26 -173 -145 -313 -264 -140 -118
-296 -251 -348 -295 -51 -43 -128 -108 -170 -144 -43 -36 -129 -108 -192 -161
-63 -53 -166 -140 -229 -194 -63 -53 -119 -100 -124 -105 -10 -10 123 -184
225 -294 l74 -79 660 558 c363 307 669 565 679 574 18 15 18 15 6 -9 -7 -14
-27 -50 -45 -80 -64 -107 -814 -1425 -819 -1440 -4 -11 21 -32 85 -74 86 -55
337 -196 350 -196 3 0 192 326 419 725 228 398 415 723 417 721 2 -1 -2 -27
-7 -57 -6 -30 -69 -389 -141 -799 -71 -410 -132 -757 -135 -771 -5 -25 -2 -26
88 -47 134 -30 323 -61 397 -64 l64 -3 28 155 c15 85 55 313 89 505 120 688
151 860 154 870 1 6 8 -19 15 -55 19 -110 159 -911 207 -1185 25 -143 47 -268
51 -279 5 -17 12 -18 72 -12 137 13 489 81 506 97 2 2 -3 36 -10 74 -8 39 -37
201 -64 360 -28 160 -78 445 -111 634 -33 189 -59 348 -58 352 2 4 84 -136
184 -310 99 -174 261 -456 360 -628 l179 -312 145 75 c80 41 207 116 282 166
l138 91 -19 31 c-10 17 -73 128 -141 246 -68 118 -174 303 -235 410 -182 315
-265 463 -263 465 2 2 75 -59 164 -134 496 -421 836 -706 843 -709 11 -4 155
151 247 265 117 145 189 253 178 269 -5 8 -91 82 -190 166 -100 84 -296 250
-437 368 -140 118 -252 216 -248 218 4 1 198 -68 432 -154 573 -211 663 -243
664 -241 78 172 114 264 159 400 39 121 81 276 75 281 -3 2 -346 128 -811 297
-82 30 -148 56 -148 59 0 3 229 4 509 2 408 -2 510 0 514 11 2 7 10 92 18 189
12 170 8 313 -18 536 l-6 52 -974 0 c-923 0 -974 -1 -969 -17z"/>
<path d="M395 3788 c-3 -13 -4 -99 -3 -193 l3 -170 954 0 955 0 -4 65 c-6 97
-6 147 2 238 l7 82 -954 0 -955 0 -5 -22z"/>
</g>
</svg>
